<svg width="740" height="1340" viewBox="0 0 740 1340" fill="none" xmlns="http://www.w3.org/2000/svg">
<g filter="url(#filter0_b_2270_6422)">
<path fill-rule="evenodd" clip-rule="evenodd" d="M247.371 19C240.055 19 233.146 15.6389 228.629 9.88367C219.091 -2.27142 200.684 -2.27143 191.146 9.88367C186.63 15.6389 179.72 19 172.405 19H48C25.3726 19 14.0589 19 7.02944 26.0294C0 33.0589 0 44.3726 0 67.0001V1291.64C0 1314.27 0 1325.58 7.02944 1332.61C14.0589 1339.64 25.3726 1339.64 48 1339.64H692C714.627 1339.64 725.941 1339.64 732.971 1332.61C740 1325.58 740 1314.27 740 1291.64V67C740 44.3726 740 33.0589 732.971 26.0294C725.941 19 714.627 19 692 19H247.371Z" fill="#222125" fill-opacity="0.8"/>
</g>
<defs>
<filter id="filter0_b_2270_6422" x="-10" y="-9.23265" width="760" height="1358.87" filterUnits="userSpaceOnUse" color-interpolation-filters="sRGB">
<feFlood flood-opacity="0" result="BackgroundImageFix"/>
<feGaussianBlur in="BackgroundImageFix" stdDeviation="5"/>
<feComposite in2="SourceAlpha" operator="in" result="effect1_backgroundBlur_2270_6422"/>
<feBlend mode="normal" in="SourceGraphic" in2="effect1_backgroundBlur_2270_6422" result="shape"/>
</filter>
</defs>
</svg>
