<svg width="31" height="31" viewBox="0 0 31 31" fill="none" xmlns="http://www.w3.org/2000/svg">
<path d="M0.5 15.342C0.5 7.05771 7.21573 0.34198 15.5 0.34198C23.7843 0.34198 30.5 7.05771 30.5 15.342C30.5 23.6263 23.7843 30.342 15.5 30.342C7.21573 30.342 0.5 23.6263 0.5 15.342Z" fill="white"/>
<path fill-rule="evenodd" clip-rule="evenodd" d="M14.7831 8.78368C14.9225 8.78346 15.0724 8.78353 15.2341 8.7836L15.5008 8.78368C17.6368 8.78368 17.89 8.79134 18.7335 8.82968C19.5135 8.86534 19.9368 8.99568 20.2188 9.10518C20.5922 9.25018 20.8583 9.42352 21.1382 9.70352C21.4182 9.98352 21.5915 10.2502 21.7368 10.6235C21.8463 10.9052 21.9769 11.3285 22.0124 12.1085C22.0507 12.9519 22.059 13.2052 22.059 15.3402C22.059 17.4753 22.0507 17.7286 22.0124 18.5719C21.9767 19.352 21.8463 19.7753 21.7368 20.057C21.5918 20.4303 21.4182 20.6961 21.1382 20.976C20.8582 21.256 20.5923 21.4293 20.2188 21.5743C19.9372 21.6843 19.5135 21.8143 18.7335 21.85C17.8901 21.8883 17.6368 21.8966 15.5008 21.8966C13.3646 21.8966 13.1114 21.8883 12.2681 21.85C11.4881 21.814 11.0647 21.6836 10.7826 21.5741C10.4092 21.4291 10.1426 21.2558 9.86256 20.9758C9.58256 20.6958 9.40922 20.4298 9.26389 20.0563C9.15439 19.7746 9.02388 19.3513 8.98838 18.5713C8.95005 17.7279 8.94238 17.4746 8.94238 15.3382C8.94238 13.2019 8.95005 12.9499 8.98838 12.1065C9.02405 11.3265 9.15439 10.9032 9.26389 10.6212C9.40889 10.2479 9.58256 9.98119 9.86256 9.70119C10.1426 9.42118 10.4092 9.24785 10.7826 9.10251C11.0646 8.99251 11.4881 8.86251 12.2681 8.82668C13.0061 8.79334 13.2921 8.78334 14.7831 8.78168V8.78368ZM19.771 10.112C19.241 10.112 18.811 10.5415 18.811 11.0717C18.811 11.6017 19.241 12.0317 19.771 12.0317C20.3011 12.0317 20.7311 11.6017 20.7311 11.0717C20.7311 10.5417 20.3011 10.112 19.771 10.112ZM11.3923 15.342C11.3923 13.0732 13.2318 11.2337 15.5005 11.2336C17.7694 11.2336 19.6084 13.0732 19.6084 15.342C19.6084 17.6109 17.7696 19.4496 15.5007 19.4496C13.2319 19.4496 11.3923 17.6109 11.3923 15.342Z" fill="url(#paint0_radial_6254_16)"/>
<path d="M18.1674 15.342C18.1674 13.8692 16.9734 12.6754 15.5007 12.6754C14.0278 12.6754 12.834 13.8692 12.834 15.342C12.834 16.8147 14.0278 18.0087 15.5007 18.0087C16.9734 18.0087 18.1674 16.8147 18.1674 15.342Z" fill="url(#paint1_radial_6254_16)"/>
<path fill-rule="evenodd" clip-rule="evenodd" d="M0.5 15.342C0.5 7.05771 7.21573 0.34198 15.5 0.34198C23.7843 0.34198 30.5 7.05771 30.5 15.342C30.5 23.6263 23.7843 30.342 15.5 30.342C7.21573 30.342 0.5 23.6263 0.5 15.342ZM15.5007 7.34198C13.3281 7.34198 13.0554 7.35148 12.202 7.39031C11.3504 7.42931 10.769 7.56415 10.2604 7.76198C9.73419 7.96632 9.28785 8.23966 8.84318 8.68449C8.39818 9.12917 8.12484 9.5755 7.91984 10.1015C7.7215 10.6103 7.5865 11.1919 7.54817 12.0432C7.51 12.8965 7.5 13.1694 7.5 15.3421C7.5 17.5148 7.50967 17.7866 7.54833 18.6399C7.5875 19.4916 7.72234 20.0729 7.92 20.5816C8.12451 21.1078 8.39784 21.5541 8.84268 21.9988C9.28719 22.4438 9.73352 22.7178 10.2594 22.9221C10.7684 23.12 11.3499 23.2548 12.2014 23.2938C13.0547 23.3326 13.3272 23.3421 15.4998 23.3421C17.6726 23.3421 17.9444 23.3326 18.7978 23.2938C19.6495 23.2548 20.2315 23.12 20.7405 22.9221C21.2665 22.7178 21.7121 22.4438 22.1567 21.9988C22.6017 21.5541 22.875 21.1078 23.08 20.5818C23.2767 20.0729 23.4117 19.4914 23.4517 18.6401C23.49 17.7868 23.5 17.5148 23.5 15.3421C23.5 13.1694 23.49 12.8967 23.4517 12.0434C23.4117 11.1917 23.2767 10.6103 23.08 10.1017C22.875 9.5755 22.6017 9.12917 22.1567 8.68449C21.7116 8.23949 21.2666 7.96615 20.74 7.76198C20.23 7.56415 19.6483 7.42931 18.7966 7.39031C17.9433 7.35148 17.6716 7.34198 15.4983 7.34198H15.5007Z" fill="url(#paint2_radial_6254_16)"/>
<defs>
<radialGradient id="paint0_radial_6254_16" cx="0" cy="0" r="1" gradientUnits="userSpaceOnUse" gradientTransform="translate(8.08356 22.5992) rotate(-138.91) scale(22.6866 22.6862)">
<stop stop-color="#FFE559"/>
<stop offset="0.215352" stop-color="#FFB959"/>
<stop offset="0.400612" stop-color="#C74C4D"/>
<stop offset="0.577708" stop-color="#C21975"/>
<stop offset="0.724023" stop-color="#7024C4"/>
<stop offset="1" stop-color="#5EBBFF"/>
</radialGradient>
<radialGradient id="paint1_radial_6254_16" cx="0" cy="0" r="1" gradientUnits="userSpaceOnUse" gradientTransform="translate(-1.46429 31.9491) rotate(-138.907) scale(51.8909)">
<stop stop-color="#FFE559"/>
<stop offset="0.215352" stop-color="#FFB959"/>
<stop offset="0.400612" stop-color="#C74C4D"/>
<stop offset="0.577708" stop-color="#C21975"/>
<stop offset="0.724023" stop-color="#7024C4"/>
<stop offset="1" stop-color="#5EBBFF"/>
</radialGradient>
<radialGradient id="paint2_radial_6254_16" cx="0" cy="0" r="1" gradientUnits="userSpaceOnUse" gradientTransform="translate(-1.46429 31.9491) rotate(-138.907) scale(51.8909)">
<stop stop-color="#FFE559"/>
<stop offset="0.215352" stop-color="#FFB959"/>
<stop offset="0.400612" stop-color="#C74C4D"/>
<stop offset="0.577708" stop-color="#C21975"/>
<stop offset="0.724023" stop-color="#7024C4"/>
<stop offset="1" stop-color="#5EBBFF"/>
</radialGradient>
</defs>
</svg>
